<?xml version="1.0" encoding="UTF-8" standalone="no"?>
<svg
   xmlns:dc="http://purl.org/dc/elements/1.1/"
   xmlns:cc="http://creativecommons.org/ns#"
   xmlns:rdf="http://www.w3.org/1999/02/22-rdf-syntax-ns#"
   xmlns:svg="http://www.w3.org/2000/svg"
   xmlns="http://www.w3.org/2000/svg"
   viewBox="0 0 847.91248 527.08752"
   height="527.08752"
   width="847.91248"
   xml:space="preserve"
   version="1.1"
   id="svg2"><metadata
     id="metadata8"><rdf:RDF><cc:Work
         rdf:about=""><dc:format>image/svg+xml</dc:format><dc:type
           rdf:resource="http://purl.org/dc/dcmitype/StillImage" /></cc:Work></rdf:RDF></metadata><defs
     id="defs6" /><g
     transform="matrix(1.25,0,0,-1.25,0,527.0875)"
     id="g10"><g
       transform="scale(0.1,0.1)"
       id="g12"><path
         id="path14"
         style="fill:#231f20;fill-opacity:1;fill-rule:nonzero;stroke:none"
         d="m 4592.68,3296.78 c -27.64,-25.17 -56.22,-51.21 -140.43,-51.21 -21.17,0 -45.43,1.7 -71.21,5.28 -30.01,-22.81 -30.82,-47.91 -31.3,-62.91 -0.09,-2.89 -0.18,-5.42 -0.44,-7.5 -0.05,-0.39 0.05,-0.7 0.32,-1.01 2.72,-3.12 17.05,-3.27 32.22,-3.43 24.24,-0.25 51.73,-0.54 60.91,-11.21 2.17,-2.53 3.21,-5.52 3.08,-8.93 12.96,2.25 101.35,17.58 149.14,25.74 -1.06,4.41 -0.58,8.56 1.46,12.35 6.65,12.37 28.81,18.89 46.63,24.12 11.78,3.48 23.99,7.07 24.75,10.94 3.88,16.59 -4.16,31.22 -11.58,40.56 -14.59,18.41 -39.73,32.28 -57.62,32.6 l -5.93,-5.39 z M 3240.42,2575.92 c 6.98,-9.52 13.59,-9.41 19.97,0.1 10.03,14.98 14.54,45.69 11.25,53.69 -1.73,4.19 -8.82,8.58 -17.8,14.14 -19.26,11.92 -48.37,29.95 -56.44,66.89 -11.08,50.67 -2.69,71.36 1.33,81.3 2.32,5.73 2.66,6.86 -0.72,8.71 -4.83,2.65 -22.51,11.27 -47.61,11.27 -20.99,0 -41.04,-6.07 -59.62,-18.03 38.1,-57.69 137.55,-201.54 149.64,-218.07 M 4465.8,3609.43 c -0.4,-1.41 3.41,-8.5 7.1,-15.36 11.42,-21.25 32.6,-60.64 26.37,-95.93 19.45,-15.58 30.59,-38.39 30.59,-62.68 0,-45.07 -38.32,-81.73 -85.42,-81.73 -47.1,0 -85.41,36.66 -85.41,81.73 0,11.04 2.26,21.75 6.66,31.68 3.45,11.73 10.6,80 -39.88,101.43 -40.85,-33.32 -64.28,-81.79 -64.28,-133.11 0,-96.42 82.05,-174.86 182.91,-174.86 100.86,0 182.92,78.44 182.92,174.86 0,88.81 -69.47,163.48 -161.56,173.97 m -542.89,220.69 c 0.08,0.18 0.33,0.72 -0.26,1.77 -26.03,31.99 -99.5,79.56 -195.17,79.56 -90.08,0 -223.77,-42.68 -349.15,-246.09 -2.33,-3.79 -5.43,-8.62 -9.15,-14.41 -161.37,-251.97 -174.1,-428.8 -37.81,-525.58 49.14,-34.9 101.85,-52.59 156.67,-52.59 26.43,0 52.71,4.2 78.03,12.43 2.91,3.76 -20.12,46.19 -36.78,67.75 -11.23,14.54 -17.98,30.69 -22.91,42.5 -3.96,9.45 -7.38,17.62 -10.42,17.74 -53.54,0 -117.91,35.96 -123.17,137.33 -4.96,95.54 58.57,182.29 109.62,252.01 l 1.86,2.55 c 4.56,6.22 9.34,12.97 14.39,20.1 44.08,62.23 110.7,156.26 214.59,156.26 16.56,0 33.76,-2.4 51.99,-7.24 3.26,0 8.86,3.31 16.62,7.89 13.19,7.8 33.13,19.56 64.14,29.51 22.49,7.21 41.57,10.37 55.5,12.68 11.31,1.88 20.25,3.36 21.41,5.83 m -656.29,-670.08 c -10.8,15.82 -33.26,48.75 -39.23,81.17 -3.69,19.98 -5.31,41.13 -6.59,58.11 -1.04,13.5 -2.1,27.46 -3.51,28.67 -126.68,-111.75 -46.9,-296.06 0.77,-406.19 7.94,-18.34 14.81,-34.19 19.27,-46.67 0.14,-0.14 0.35,-0.3 0.87,-0.3 4.65,0 16.84,11.04 28.66,21.73 4.2,3.81 8.49,7.68 12.61,11.24 17.09,14.73 33.8,22.2 49.49,28.47 -58.73,127.79 -77.16,197.97 -56.31,214.44 -0.68,1.47 -3.29,5.3 -6.03,9.33 m 51.27,-432.83 c 5.8,-18.86 72.45,-106.84 184.87,-106.84 l 0.03,0 c 44.57,0.01 91.76,13.49 140.23,40.07 200,109.68 116.08,296.69 54.81,433.23 -10.05,22.38 -19.53,43.53 -27.05,62.72 -1.5,3.86 -3.22,8.42 -5.16,13.6 -25.96,69.15 -86.74,231.13 -218.76,231.13 -18.04,0 -36.99,-3.13 -56.36,-9.31 -8.4,-2.45 -5.39,-38.19 -2.74,-54.13 4.73,-28.38 18.9,-58.66 21.62,-64.32 10.94,3.13 20.84,4.65 30.25,4.65 56.49,0 83.34,-55.82 123.98,-140.32 9.78,-20.32 19.89,-41.33 31.54,-64.02 112.28,-218.67 22.18,-298.67 -21.76,-322.92 -17.3,-9.54 -34.9,-14.37 -52.35,-14.37 -59.73,0 -99.73,55.34 -109.82,71.75 -7.74,1.98 -15.27,2.98 -22.37,2.98 -31.13,0 -49.25,-18.5 -58.96,-34.02 -12.63,-20.15 -15.54,-42.53 -12,-49.88 m 681.48,963.08 c -4.06,1.39 -15.34,2.78 -29.38,2.78 -9.93,0 -24.54,-0.7 -37.72,-4.11 -6.93,-1.78 -13.87,-3.28 -20.31,-4.68 -15.46,-3.34 -30.06,-6.5 -29.22,-10.87 18.72,-72.36 -75.24,-245.56 -244.93,-388.08 -2.8,-2.38 9.04,-26.81 16.88,-42.95 3.25,-6.71 6.48,-13.38 9.23,-19.39 19.09,-41.84 27.41,-55.19 31.02,-58.6 40.68,39.86 359.39,359.13 304.43,525.9 m -786.7,-916.47 -1.13,0.53 0,-3.34 1.21,-0.25 c -9.94,-47.67 4.87,-85.08 44.06,-111.21 23.03,-15.36 89.44,-25.69 118.58,-9.88 -1.65,1.37 -5.77,3.69 -9.76,5.95 -16.45,9.27 -47.06,26.53 -57.34,54.97 -9.54,26.29 -13.95,55.58 17.94,91.46 19.81,22.31 47.31,30.25 66.47,30.25 l 0.06,0 c 11.85,-0.01 21.56,-2.98 26.23,-8.5 3.95,-16.58 43.11,-54.86 58.52,-64.1 39.37,46.49 27.33,101.67 -0.66,133.43 -38.68,43.89 -121.52,53.17 -193.27,-7.24 -55.28,-46.56 -62.08,-77.03 -66.56,-97.19 -1.27,-5.71 -2.38,-10.64 -4.35,-14.88 m 949.77,1001.82 c -76.63,21.94 -149.21,33.52 -209.88,33.52 -112.05,0 -184.35,-37.95 -214.87,-112.79 -38.86,-95.26 -20.8,-184.35 46.77,-227.15 7.87,0 31.23,39.46 38.91,52.42 12.72,21.5 21.41,55.04 18.77,58.89 -5.28,2.01 -9.1,5.97 -11.36,11.76 -6.14,15.78 0.68,42.23 9.63,60.12 9.02,18.04 39.91,60 131.62,60 52.49,0 117.23,-13.68 192.42,-40.63 242.33,-86.9 222.43,-163.38 209.27,-213.99 l -0.98,-3.73 c -4.98,-21.15 14.82,-44.51 33.29,-58.08 13.22,-9.73 35.37,-26.02 45.74,-26.02 1.75,0 2.99,0.48 3.64,1.2 24.91,49.82 47.6,125.18 14.18,201.18 -38.51,87.6 -141.85,156 -307.15,203.3 m -228.49,-379.25 c 82.54,-34.05 260.3,-98.46 342.11,-98.46 12.12,0 21.81,1.43 28.42,4.05 2.16,1.8 -4.62,10.06 -11.8,18.81 -8.56,10.42 -20.29,24.71 -27.9,40.52 -7.12,14.79 -10.78,27.37 -13.44,36.56 -3.42,11.76 -5.48,18.86 -11.33,20.26 -39.28,8.64 -117.67,34.72 -174.91,53.76 -35.1,11.68 -62.83,20.91 -73.33,23.32 -5.69,0 -14.96,-15.21 -23.15,-28.63 -3.83,-6.29 -7.8,-12.79 -11.49,-17.96 -12.01,-16.83 -25.32,-43.27 -23.81,-50.87 0.15,-0.73 0.41,-1.2 0.63,-1.36 M 2609.8,2617.68 c 0,-26.46 21.53,-47.98 47.99,-47.98 26.45,0 47.98,21.52 47.98,47.98 0,26.45 -21.53,47.98 -47.98,47.98 -26.46,0 -47.99,-21.53 -47.99,-47.98 m 47.99,-62.92 c 34.69,0 62.92,28.23 62.92,62.92 0,34.69 -28.23,62.92 -62.92,62.92 -34.7,0 -62.92,-28.23 -62.92,-62.92 0,-34.69 28.22,-62.92 62.92,-62.92 m -219.98,-48.51 c 2.31,8.45 8.45,15.13 17.33,18.82 20.01,8.34 80.79,57.47 89.86,68.47 4.35,5.3 6.58,12.74 7.02,23.41 2.37,56.8 49.86,101.31 108.08,101.31 59.6,0 108.1,-45.42 108.1,-101.26 0,-55.83 -48.5,-101.25 -108.1,-101.25 -2.87,0 -6.65,0.56 -10.64,1.14 -5.1,0.76 -10.89,1.61 -16.53,1.61 -6.89,0 -12.32,-1.28 -16.65,-3.92 -31.32,-19.16 -56.07,-42.03 -77.85,-71.99 l -0.83,-1.15 c -10.19,-14.03 -16.35,-22.49 -24.64,-22.49 -4.26,0 -9.44,2.2 -16.28,6.91 -13.98,9.67 -33.38,30.85 -56.08,61.26 -3.63,4.86 -4.7,12.19 -2.79,19.13 m 480.6,-91.72 c 3.02,-6.96 5.86,-13.53 8.05,-19.77 10.92,-30.98 104.77,-213.56 117.39,-233.92 9.44,-15.23 23.97,-18.44 34.48,-18.44 4.8,0 9.78,0.65 14.78,1.91 17.28,4.36 66.03,21.09 83.66,45.77 20.86,29.2 -1.07,48.94 -29.31,74.36 -14.73,13.25 -50.55,47.65 -82.15,78.02 -28.45,27.33 -55.33,53.15 -59.55,56.54 -7.87,6.29 -6.89,19.29 -5.76,34.33 1.45,19.32 3.1,41.22 -13.61,54.41 -10.54,8.3 -24,13.06 -37.01,13.06 -11.09,0 -21.49,-3.36 -30.87,-9.97 -25.38,-17.89 -11.95,-48.92 -0.1,-76.3 M 1040.58,1076.78 c 54.91,0 99.59,44.67 99.59,99.58 0,54.91 -44.68,99.58 -99.59,99.58 -54.904,0 -99.572,-44.67 -99.572,-99.58 0,-54.91 44.668,-99.58 99.572,-99.58 m 1378.68,1408.1 c 8.42,-12.03 48.77,-60.09 72.79,-77.79 5.11,-3.77 9.01,-7.2 12.14,-9.96 5.05,-4.43 8.38,-7.36 11.97,-7.36 4.86,0 9.19,5.19 17.66,17.63 16.07,23.56 44.67,57.81 89.65,87.15 4.8,3.13 9.92,4.58 16.14,4.58 4.41,0 8.72,-0.72 12.9,-1.42 3.92,-0.66 7.6,-1.28 11.11,-1.28 68.68,0 124.58,55.89 124.58,124.58 0,68.69 -55.9,124.58 -124.58,124.58 -67.13,0 -121.85,-54.7 -124.58,-124.54 -0.29,-7.19 -2.57,-9.86 -6.33,-14.28 -1.05,-1.23 -2.19,-2.58 -3.41,-4.16 -10.55,-13.66 -80.45,-67.53 -102.02,-77.12 -8.6,-3.82 -13.84,-8.92 -15.58,-15.15 -1.95,-7.06 0.52,-15.39 7.56,-25.46 m 392.55,-342.19 c 37.91,0 68.75,30.84 68.75,68.74 0,37.91 -30.84,68.75 -68.75,68.75 -37.91,0 -68.75,-30.84 -68.75,-68.75 0,-37.9 30.84,-68.74 68.75,-68.74 m 78.55,274.99 c 14,-39.45 130.61,-257.98 144.51,-280.25 10.3,-16.49 22.58,-24.18 38.62,-24.18 5.08,0 10.68,0.79 17.1,2.38 16.57,4.15 83.27,26.34 106.95,59.24 27.68,38.44 22.53,51.48 -12.67,82.91 -14.31,12.78 -41.19,37.26 -68.73,62.33 -39.83,36.25 -81,73.75 -87.58,78.97 -8.61,6.85 -7.85,20.7 -6.96,36.75 1.23,22.19 2.6,47.34 -19.3,64.5 -8.62,6.76 -31.48,22.49 -57.18,22.49 -11.81,0 -22.71,-3.34 -32.41,-9.94 -29.58,-20.11 -37.32,-53.03 -22.35,-95.2 m 350.2,10.42 c 0,37.91 -30.84,68.75 -68.75,68.75 -37.91,0 -68.75,-30.84 -68.75,-68.75 0,-37.91 30.84,-68.75 68.75,-68.75 37.91,0 68.75,30.84 68.75,68.75 m -361.25,398.75 c -37.91,0 -68.75,-30.84 -68.75,-68.75 0,-37.9 30.84,-68.74 68.75,-68.74 37.91,0 68.75,30.84 68.75,68.74 0,37.91 -30.84,68.75 -68.75,68.75 M 693.398,1730.71 c -22.375,237.36 2.438,568.43 247.739,797.73 241.963,226.17 483.773,327.04 784.063,327.04 64.99,0 132.02,-4.58 204.93,-14.01 55.78,-7.2 115.7,-10.85 178.13,-10.85 263.3,0 517.92,63.81 615.76,97.55 l 9.32,3.21 c 61.24,21.14 98.22,33.9 126.64,33.9 36.14,0 59.61,-19.8 112.75,-72.2 89.01,-87.78 314.55,-384.01 376.41,-534.21 34.78,-84.49 42.21,-111.38 -16.13,-168.63 -61.78,-60.62 -400.83,-371.6 -470.96,-422.38 l -8.64,-6.29 c -34.79,-25.32 -62.28,-45.33 -89.99,-45.33 -27.94,0 -54.03,20.45 -84.59,66.3 -3.44,5.16 -8,12.28 -13.63,21.1 -51.28,80.32 -207.36,324.74 -444.94,497.56 -161.41,117.43 -389.05,190.37 -594.08,190.37 -148.46,0 -280.99,-38.45 -383.29,-111.2 -196.26,-139.58 -255.964,-413.14 -246.386,-622.62 9.366,-205.19 83.396,-372.31 193.156,-436.16 35.13,-20.44 71.56,-79.74 71.67,-143.63 0.09,-41.91 -15.53,-101.09 -90.43,-145.04 -51.9,-30.45 -96.22,-45.248 -135.49,-45.248 -65.234,0 -117.375,40.788 -169.043,132.278 -55.668,98.59 -147.679,342.59 -172.969,610.76 M 2070.98,2853.49 c 25.33,0 44.53,1.98 57.16,5.89 -66.85,24 -148.16,59.03 -202.29,82.34 -25.45,10.96 -45.56,19.63 -56.02,23.64 -12.25,4.72 -22.34,7.86 -31.72,7.86 -14.78,0 -27.48,-7.61 -46.91,-28.07 -24.56,-25.85 -37.34,-39.66 -49.42,-52.73 l -8.18,-8.82 c 19.29,2.04 70.15,-4.12 130.03,-11.55 70.11,-8.7 149.6,-18.56 207.35,-18.56 m 858.33,-95.39 c 0,27.57 -22.43,50 -50,50 -27.57,0 -50,-22.43 -50,-50 0,-27.57 22.43,-50 50,-50 27.57,0 50,22.43 50,50 m -167.5,-546.67 c 0,-27.57 22.43,-49.99 50,-49.99 27.57,0 50,22.42 50,49.99 0,27.57 -22.43,50 -50,50 -27.57,0 -50,-22.43 -50,-50 M 1061.13,943.75 c 143.44,-93.289 349.91,-200.379 675.92,-200.379 94.15,0 194.98,9.149 299.69,27.207 385.38,66.453 585.5,426.712 653.65,578.512 1.62,3.59 2.87,6.37 3.76,8.29 20.05,42.62 37.73,65.72 73.64,65.72 35.78,0 136.61,-17.95 182.87,-32.56 l 5.25,-1.67 c 15.61,-4.97 29.1,-9.28 40.6,-9.28 17.19,0 35.09,8.75 37.53,73.62 5.79,153.59 -27.72,228.9 -82.86,339.08 -1.53,3.02 -4.77,3.66 -7.23,3.66 -5.83,0 -12.11,-3.38 -13.84,-6.39 -3.86,-6.75 -92.2,-72.08 -116.7,-86.31 -20.01,-11.61 -38.46,-17.26 -56.42,-17.26 -31.23,0 -59.49,17.28 -83.97,51.37 -7.51,10.46 -19.09,28.68 -33.74,51.75 -63.25,99.53 -180.98,284.83 -313.13,394.28 -10.62,8.79 -14.27,10.14 -15.71,10.14 l -0.02,0 c -1.04,-1.33 3.35,-10.11 5,-13.42 2.06,-4.11 2.79,-5.63 2.72,-6.23 0.16,-0.38 0.92,-1.71 2.18,-3.97 35.55,-63.34 97.15,-193.39 110.07,-352.57 19.27,-237.13 -76.41,-435.29 -284.36,-589 -77.29,-57.12 -264.83,-153.8 -477.55,-153.8 -126.46,0 -243.64,33.91 -348.25,100.76 -11.54,7.4 -26.25,10.07 -30.66,4.74 -1.84,-2.23 -2.3,-5.74 -1.4,-10.47 4.08,-21.24 -24.69,-101.17 -62.07,-134.5 -47.96,-42.769 -101.2,-65.64 -167.57,-71.961 -6.93,-0.668 -11.06,-2.281 -11.62,-4.55 -0.45,-1.778 0.82,-6.098 14.22,-14.809 m 4631.04,1514.51 c -38.68,21.76 -110.07,43.54 -235.99,78.17 31.84,-24.3 201.98,-155.24 253.53,-216.92 2.56,9.63 12.18,47.12 14.32,74.94 0.23,2.9 0.47,5.62 0.7,8.18 2.32,25.85 3.17,35.53 -32.56,55.63 M 3764.55,2305.18 c -20.98,-23.6 -29.68,-39.62 -28.2,-51.95 1.54,-12.74 13.62,-21.12 30.37,-32.72 4.52,-3.14 9.34,-6.47 14.31,-10.16 72.94,-54.12 160.03,-122.09 165.42,-135.54 1.08,-2.71 2.64,-4.23 4.3,-5.85 5.72,-5.58 10.68,-10.41 -6.8,-55.07 -1.08,-2.77 -2.59,-6.5 -4.47,-11.13 -139.92,-346 -164.09,-652.45 -68.06,-862.9 169.44,-371.309 579.73,-663.981 975.57,-695.93 6.73,0.011 11.49,1.859 11.86,4.609 0.5,3.57 -6.79,11.891 -37.23,20.43 -54.46,15.281 -131.15,78.633 -119.25,190.5 12.2,114.66 97.79,144.41 147.73,151.953 18.07,2.719 18.04,5.969 18.03,6.129 -0.24,3.179 -16.11,8.008 -39.49,8.008 -5.33,0 -10.62,-0.27 -15.73,-0.778 -1.62,-0.172 -3.81,-0.269 -6.5,-0.269 -39.72,0 -185.73,19.937 -330.64,108.539 -184.9,113.039 -301.34,297.259 -336.73,532.779 -27.37,182.2 6.35,335.53 100.23,455.73 131.8,168.76 378.83,271.62 733.33,305.43 1.28,4.18 2.29,7.48 0.68,9.89 -2.07,3.1 -8.63,5.08 -20.61,6.22 l -5.25,0.55 c -18.41,1.95 -74.43,7.91 -162.17,7.91 -146.52,0 -307.38,-15.74 -478.08,-46.78 -20.65,-3.75 -40.2,-5.66 -58.11,-5.66 -131.98,0 -150.75,102.15 -153.36,133.46 -0.73,8.82 -1.43,17.97 -2.13,27.14 -3.47,45.7 -7.8,102.58 -18.78,102.58 l -0.02,0 c -103.75,-27.38 -232.78,-69.98 -310.22,-157.12 m 582.26,588.78 c 0,27.58 -22.43,50 -50,50 -27.57,0 -50,-22.42 -50,-50 0,-27.56 22.43,-50 50,-50 27.57,0 50,22.44 50,50 m 546.8,-2151.698 c -54.9,0 -99.58,-44.672 -99.58,-99.582 0,-54.918 44.68,-99.578 99.58,-99.578 54.91,0 99.58,44.66 99.58,99.578 0,54.91 -44.67,99.582 -99.58,99.582 M 4857.78,2795.6 c -37.91,0 -68.75,-30.84 -68.75,-68.75 0,-37.91 30.84,-68.75 68.75,-68.75 37.91,0 68.75,30.84 68.75,68.75 0,37.91 -30.84,68.75 -68.75,68.75 m -61.98,278.89 c -37.91,0 -68.75,-30.84 -68.75,-68.75 0,-37.91 30.84,-68.75 68.75,-68.75 37.91,0 68.75,30.84 68.75,68.75 0,37.91 -30.84,68.75 -68.75,68.75 M 4431.81,2728.1 c -37.91,0 -68.75,-30.84 -68.75,-68.75 0,-37.91 30.84,-68.75 68.75,-68.75 37.91,0 68.75,30.84 68.75,68.75 0,37.91 -30.84,68.75 -68.75,68.75 m -135,234.61 c -37.91,0 -68.75,-30.83 -68.75,-68.75 0,-37.91 30.84,-68.75 68.75,-68.75 37.91,0 68.75,30.84 68.75,68.75 0,37.92 -30.84,68.75 -68.75,68.75 M 5298.5,2145.47 c -131.26,86.56 -300.8,128.64 -518.32,128.64 -164.13,0 -320.53,-23.8 -446.21,-42.94 l -3.88,-0.59 c -30.59,-4.65 -56.3,-6.92 -78.61,-6.92 -87.94,0 -114.26,36.42 -129.99,99.33 -19.68,78.76 -40.08,536.1 -36.63,632.98 3.24,90.66 43.14,118.08 125.77,142.17 73.09,21.32 482.91,87.56 643.97,87.56 10.99,0 20.71,-0.32 28.93,-0.93 119.53,-8.97 134.64,-69.4 147.97,-122.72 1.4,-5.6 2.78,-11.08 4.24,-16.37 67.85,-244.56 254.22,-400.01 451.52,-564.59 260.84,-217.58 530.56,-442.57 501.77,-891.67 -19.89,-310.43 -49.97,-779.549 -979.16,-1103.889 -35.13,-12.269 -69.27,-18.492 -101.48,-18.492 -120.14,0 -187.66,83.641 -190.2,162.34 -3.75,116.281 78.56,178.09 244.63,183.723 84.9,2.867 325.55,72.937 487.57,262.438 122.13,142.85 171.29,319.14 146.13,523.96 -30.99,252.31 -131.27,436 -298.02,545.97 m 121,-107.49 c 0.82,-0.95 1.66,-1.89 2.47,-2.83 -0.82,0.95 -1.65,1.89 -2.47,2.83 m -19.03,20.86 c -0.86,0.89 -1.7,1.8 -2.57,2.69 0.87,-0.9 1.71,-1.8 2.57,-2.69 M 3221.81,2428.1 c 0,27.57 -22.43,50 -50,50 -27.57,0 -50,-22.43 -50,-50 0,-27.57 22.43,-50 50,-50 27.57,0 50,22.43 50,50 m 1260,231.25 c 0,27.57 -22.43,50 -50,50 -27.57,0 -50,-22.43 -50,-50 0,-27.57 22.43,-50 50,-50 27.57,0 50,22.43 50,50 m 363.99,346.39 c 0,27.57 -22.44,50 -50,50 -27.58,0 -50,-22.43 -50,-50 0,-27.57 22.42,-50 50,-50 27.56,0 50,22.43 50,50 m 61.98,-278.89 c 0,27.57 -22.43,50 -50,50 -27.57,0 -50,-22.43 -50,-50 0,-27.57 22.43,-50 50,-50 27.57,0 50,22.43 50,50 M 960.996,1176.36 c 0,-43.88 35.699,-79.58 79.584,-79.58 43.88,0 79.58,35.7 79.58,79.58 0,43.87 -35.7,79.58 -79.58,79.58 -43.885,0 -79.584,-35.71 -79.584,-79.58 M 4893.61,563.102 c -43.88,0 -79.58,35.699 -79.58,79.578 0,43.871 35.7,79.582 79.58,79.582 43.88,0 79.58,-35.711 79.58,-79.582 0,-43.879 -35.7,-79.578 -79.58,-79.578" /></g></g></svg>